<svg xmlns="http://www.w3.org/2000/svg" xml:space="preserve" viewBox="0 0 2712 412"><path fill="none" stroke="#FFF" stroke-linecap="round" stroke-linejoin="round" stroke-width="14" d="M436.5 19.5c.126 11.667.37 23.343.38 35 .069 74.333-.359 148.667-.313 223 .02 32.833 1.336 65.658 1.004 98.5-.06 5.955 1.575 8.462 8.429 8.532 24.5.251 49.02.152 73.493 1.138 16.189.652 32.342-.077 48.508.307 3.663.087 7.332 1.382 10.999.023M271.25 51.5c-3.542-5.14-9.267-7.466-14.323-10.374-15.918-9.157-32.873-16.283-50.97-19.374-12.274-2.096-24.906-1.44-37.468-.39-21.371 1.79-38.896 12.088-55.965 23.673-4.822 3.272-9.39 6.922-14.015 10.476-5.241 4.029-6.793 9.849-6.949 15.99-.33 12.996-.376 26.004-.445 39-.402 75.665-.456 151.332-.593 226.999-.006 3.666.306 7.334.48 11 .156 3.302 2.034 5.702 4.523 7.465 16.889 11.97 35.671 19.722 55.434 25.672 16.192 4.875 32.622 3.873 49.04 3.8 26.135-.115 48.678-10.197 68.98-25.963 3.992-3.099 5.586-7.32 5.575-12.474-.093-45.5-.088-91 .018-136.5.008-3.232-1.563-6.255-.822-9.5M2488.5 168.5c-.15 7.824 5.247 12.747 10.104 17.392 16.379 15.665 35.986 26.125 56.845 34.732 20.57 8.488 40.878 17.62 61.557 25.86 17.328 6.906 32.363 16.69 43.058 32.473 5.091 7.513 7.624 15.627 9.118 24.512 1.497 8.898 2.092 17.755.69 26.51-2.638 16.46-9.53 30.525-23.218 41.219-7.457 5.825-15.506 9.916-24.223 12.576-4.88 1.49-10.01 2.908-15.432 2.853-7.5-.077-14.916 1.573-22.5 1.476-12.247-.157-23.904-2.437-34.999-7.603-13.596-6.331-26.736-13.294-38.076-23.414-7.274-6.491-13.6-13.782-19.804-21.186-1.83-2.182-3.68-2.88-6.12-3.15"/><path fill="none" stroke="#FFF" stroke-linecap="round" stroke-linejoin="round" stroke-width="15" d="M1586.5 19.5c.935 33.16 1.384 66.333.936 99.5-.935 69.333-.162 138.667-.403 208-.056 16 .281 32 .476 48 .085 7.032 2.378 9.284 9.492 9.474 24.828.663 49.657 1.193 74.5 1.075 11-.053 21.974 1.372 33 .96 9.998-.374 19.999-.676 29.999-1.009"/><path fill="none" stroke="#FFF" stroke-linecap="round" stroke-linejoin="round" stroke-width="14" d="M2665 53.5c-2.533.445-4.224-.958-6.023-2.473-11.21-9.44-22.706-18.32-36.421-24.158-11.144-4.742-22.674-7.15-34.561-7.768-14.07-.733-28.175-.139-41.974 2.992-6.937 1.574-13.533 4.48-19.499 8.44-11.047 7.333-21.64 15.253-28.477 26.993-3.305 5.676-5.175 11.832-6.163 18.456-2.858 19.174 3.06 35.324 15.041 50.08 12.901 15.89 29.722 26.506 47.12 36.362 12.333 6.987 25.571 12.187 38.442 18.11 18.69 8.601 37.971 15.966 55.554 26.903 6.843 4.256 13.455 8.603 18.503 15.03 1.335 1.698 2.312 3.387 2.458 5.533M2174.5 17.5c-1.334 4.667.13 9.332.005 14-1.344 49.827-.987 99.665-1.001 149.5-.016 57.5-.062 115 .041 172.5.023 12.667.622 25.333.955 38"/><path fill="none" stroke="#FFF" stroke-linecap="round" stroke-linejoin="round" stroke-width="13" d="M2085 389c.518-2.858-.453-5.378-1.448-8.02-4.828-12.83-9.14-25.833-13.119-38.96-3.515-11.596-7.795-22.96-11.389-34.534-5.846-18.83-12.011-37.557-17.772-56.416-3.89-12.73-8.177-25.383-12.219-38.087-8.838-27.779-17.342-55.663-26.067-83.479-6.595-21.022-13.466-41.959-19.935-63.02-4.474-14.565-9.086-29.078-13.94-43.521-1.208-3.59-2.922-5.428-6.611-5.463M965.5 20c4.5 14.833 8.826 29.722 13.538 44.488 8.413 26.365 17.716 52.43 26.73 78.592 6.347 18.426 12.477 36.95 18.762 55.41 5.521 16.216 11.355 32.325 16.96 48.514a1556.292 1556.292 0 0 0 40.001 103.5 2980.224 2980.224 0 0 1 13.483 32.007c1.313 3.167 1.753 6.547 1.526 9.989M2060.5 387.5c-4.239-7.325-5.845-15.607-8.471-23.51-8.743-26.308-17.451-52.628-25.987-79.004-3.587-11.084-6.637-22.341-10.057-33.481-7.117-23.182-14.317-46.339-21.485-69.505-8.665-28-17.298-56.011-26.012-83.996-6.44-20.686-13.1-41.303-19.407-62.029-1.52-4.991-2.421-10.16-4.492-15.013-.4-.936-.795-1.38-1.589-1.712"/><path fill="none" stroke="#FFF" stroke-linecap="round" stroke-linejoin="round" stroke-width="14" d="M2224 201c13.348-.098 26.696-.034 40.008-1.424 3.28-.343 6.682.59 9.987.354 6.648-.475 13.606.268 18.23-6.783 1.5-2.287 5.625-2.75 8.72-3.808 16.073-5.492 32.013-10.967 46.21-21.122 16.786-12.007 25.63-27.835 28.926-47.704 2.449-14.763-1.715-28.07-8.716-40.437-11.313-19.984-26.188-36.765-47.894-46.009-12.634-5.38-26.02-8.588-39.491-10.951-16.665-2.924-33.464-5.11-50.48-4.636-6.566.183-7.944 1.451-7.999 8.02-.17 20.333-.11 40.672-.553 60.999-.704 32.334-.264 64.668-.447 97.001-.03 5.092.203 10.178 2.074 14.97.467 1.197.383 1.849.017 3.058-3.768 12.438-2.367 25.272-2.446 37.973-.01 1.57.318 3.342.32 4.999.043 41.167.031 82.333.044 123.5.001 1.667.041 3.349.259 4.997 1.3 9.856 3.073 11.565 13.23 11.46 17.002-.176 34.068.156 50.972-1.29 8.29-.71 16.77-1.395 25.107-3.332 6.422-1.491 13.07-2.405 19.409-4.377 28.63-8.906 50.946-24.657 58.965-55.47 1.017-3.91 1.875-7.978 1.954-11.99.226-11.503 2.45-22.966-.79-34.53-4.38-15.645-10.543-29.73-23.499-40.608-15.626-13.12-33.682-20.297-53.124-24.83-5.121-1.195-10.387-1.793-15.474-3.105-4.059-1.047-7.661-3.221-10.519-6.425M389 19c.625 123.001-.403 246-.5 369"/><path fill="none" stroke="#FFF" stroke-linecap="round" stroke-linejoin="round" stroke-width="13" d="M413 19c0 38.667-.435 77.34.112 115.998.661 46.837.23 93.669.339 140.502.082 35.333-.288 70.667-.44 106-.007 1.666.156 3.333.239 5"/><path fill="none" stroke="#FFF" stroke-linecap="round" stroke-linejoin="round" stroke-width="14" d="M1563 19c-1.686 3.914.546 7.645.542 11.5-.058 66.833.388 133.67-.181 200.499-.437 51.336-.05 102.668-.361 154.001"/><path fill="none" stroke="#FFF" stroke-linecap="round" stroke-linejoin="round" stroke-width="13" d="M989.5 18c3.167 9.167 6.597 18.252 9.447 27.516 6.51 21.168 13.47 42.17 20.962 63.017 6.113 17.006 11.26 34.357 17.13 51.454 8.932 26.023 17.352 52.218 26.884 78.042 8.673 23.497 16.926 47.15 26.074 70.472 5.684 14.493 11.382 28.981 16.957 43.517.91 2.374 1.213 4.982 1.796 7.482M1210.75 17.5c5.25 16.167 10.428 32.357 15.768 48.494a2021.651 2021.651 0 0 0 20.362 58.55c7.05 19.3 13.023 38.99 19.648 58.447 6.54 19.21 13.174 38.39 20.005 57.497 8.36 23.384 16.88 46.71 25.504 69.998 4.288 11.579 8.97 23.011 13.459 34.516 1.36 3.489 2.67 6.998 4.004 10.498M1234.75 16.5c10.946 27.872 19.073 56.698 28.755 84.998a30273.411 30273.411 0 0 0 23.002 67c5.463 15.846 10.795 31.741 16.541 47.485 8.008 21.94 14.872 44.274 23.277 66.084 2.799 7.262 4.997 14.785 8.172 21.934 1.508 3.396 3.75 6.137 7.003 7.999M1184.75 17.5c4.052 6.994 5.18 14.998 7.693 22.52 4.209 12.596 8.056 25.314 12.064 37.978.111.35.334.665.492 1.002 2.544 5.415-1.581 12.259 2.656 16.857 4.659 5.056 6.587 11.084 8.844 17.143 2.172 5.832 4.486 11.615 6.474 17.51 6.904 20.475 13.479 41.065 20.592 61.468 6.317 18.122 12.93 36.14 19.757 54.09 9.144 24.042 17.26 48.484 26.726 72.413 8.607 21.756 17.613 43.355 26.458 65.016 1.192 2.92 1.01 5.964.994 9.003"/><path fill="none" stroke="#FFF" stroke-linecap="round" stroke-linejoin="round" stroke-width="14" d="M1453 18.5c-4.308 3.262-4.74 8.52-6.424 13.028-8.003 21.437-15.918 42.91-23.522 64.491-6.428 18.241-12.193 36.716-18.614 54.96-5.374 15.27-11.28 30.352-16.938 45.522-5.842 15.663-11.733 31.309-17.484 47.005-5.914 16.138-11.865 32.265-17.434 48.523-2.417 7.055-4.496 14.157-10.123 19.43-1.371 1.285-.943 2.684-.923 4.04.068 4.669.295 9.334.462 14.001"/><path fill="none" stroke="#FFF" stroke-linecap="round" stroke-linejoin="round" stroke-width="13" d="M1012.5 18.75c2.278.788 3.302 2.553 4.024 4.742 5.121 15.515 10.325 31.003 15.473 46.51 10.677 32.162 21.592 64.25 31.927 96.522 9.379 29.287 20.827 57.835 30.472 87.01 5.1 15.425 10.95 30.57 16.105 45.966 1.383 4.128 3.37 8.265 6.64 10.82 3.617 2.826 3.538 5.994 3.385 9.681-.07 1.66.14 3.332.224 4.999"/><path fill="none" stroke="#FFF" stroke-linecap="round" stroke-linejoin="round" stroke-width="14" d="M2197 18c1.377 2.333-.062 4.668-.067 7-.068 32.333-.376 64.667-.41 97-.074 69.5-.094 139 .023 208.5.033 19.5.62 39 .954 58.5"/><path fill="none" stroke="#FFF" stroke-linecap="round" stroke-linejoin="round" stroke-width="13" d="M684 60c-4.595 6.018-1.906 12.984-2.33 19.511-.097 1.502.295 3.333.296 4.989.04 75 .049 150 .012 225-.004 8-.286 16-.492 24-.073 2.831.353 5.514 1.764 8"/><path fill="none" stroke="#FFF" stroke-linecap="round" stroke-linejoin="round" stroke-width="14" d="M68.75 82.5c-1.436 5.084-.979 10.356-1.123 15.504-.377 13.489-.095 26.996-.133 40.496-.153 54.833-.306 109.667-.536 164.5-.018 4.335-.574 8.671-.97 12.999-.607 6.64.668 13.07 2.012 19.501"/><path fill="none" stroke="#FFF" stroke-linecap="round" stroke-linejoin="round" stroke-width="13" d="M1206 95c-4.668 2.7-6.904 7.18-8.475 12.008-7.623 23.424-17.022 46.211-24.954 69.516-7.886 23.17-16.655 46.006-25.007 69-6.98 19.219-13.431 38.631-20.035 57.986-1.305 3.825-3.365 7.006-6.529 9.49"/><path fill="none" stroke="#FFF" stroke-linecap="round" stroke-linejoin="round" stroke-width="14" d="m1539.5 20.5-1 366M1918.75 19c-.083 1-.016 2.041-.276 2.993-1.134 4.144-.445 7.673 3.012 10.524 2.644 2.18 3.511 5.41 4.497 8.489 10.028 31.324 20.209 62.601 29.955 94.013 7.633 24.599 14.15 49.538 22.315 73.98.058.175.235.334.237.501.083 8.66 2.956 16.314 6.728 24.136 3.636 7.538 5.035 16.174 7.266 24.368 6.415 23.566 14.002 46.774 21.617 69.963 3.303 10.056 7.176 19.932 10.453 30.015 2.736 8.42 6.013 16.661 8.9 25.034.743 2.156 1.727 3.745 4.046 4.234M1917.5 29.5c-3.405 3.18-5.585 6.936-7.11 11.463-6.362 18.891-11.514 38.177-18.08 56.97-6.043 17.298-11.05 34.917-17.356 52.142-7.26 19.829-14.303 39.738-21.922 59.437-.414 1.071-.447 2.316-.52 3.489-.821 13.274-9.469 23.652-13.329 35.9-5.69 18.053-13.702 35.363-20.388 53.116-9.189 24.398-18.238 48.843-29.29 72.485a674.154 674.154 0 0 0-5.485 12.007c-.426.96-.682 1.898-2.02 1.241M2486.75 133.5c7.573 16.13 20.038 27.876 34.261 37.984 19.542 13.888 41.01 24.26 63.028 33.423 21.522 8.958 42.928 18.092 62.924 30.155 6.91 4.169 12.937 9.643 18.458 15.512A20.061 20.061 0 0 1 2670.75 262M45.25 118.5c-2.159 4.121-1.736 8.6-1.738 13-.019 53-.019 106 .01 159 0 2.5.311 5 .478 7.5"/><path fill="none" stroke="#FFF" stroke-linecap="round" stroke-linejoin="round" stroke-width="12" d="M660.5 88.5c-2.879 7.422-2.96 15.198-3.018 23-.105 14.167-.914 28.357-.359 42.495 1.193 30.335.752 60.67.847 91.005.029 9.333-.45 18.667-.436 28 .023 14.191-.72 28.428 1.966 42.5"/><path fill="none" stroke="#FFF" stroke-linecap="round" stroke-linejoin="round" stroke-width="15" d="M1979 223c-4.871 1.632-9.875 2.047-15 2.036-33.167-.07-66.333-.054-99.5-.015-4.41.005-8.797.105-13-1.521"/><path fill="none" stroke="#FFF" stroke-linecap="round" stroke-linejoin="round" stroke-width="14" d="M761.5 18.5c-7.917 2.617-16.304 3.238-24.086 6.814-7.91 3.634-15.417 7.83-23.01 12.01-6.226 3.428-8.33 8.126-8.442 14.675-.196 11.503-1.113 23.011-.876 34.5.914 44.333-.14 88.672.543 132.999.257 16.67-.118 33.344.424 50 .93 28.501.256 57.002.353 85.502.019 5.548 1.899 9.715 6.103 12.988 7.358 5.729 15.663 9.858 24.542 12.327 5.013 1.393 9.831 3.349 14.928 4.526 12.93 2.987 25.893 3.03 39.03 2.027 6.88-.526 13.743-.894 20.488-2.384 6.201-1.37 12.137-3.619 17.99-6.014 21.94-8.975 37.887-24.89 49.301-45.09 6.068-10.739 9.246-22.953 12.758-34.867 3.376-11.454 4.284-23.164 5.055-35.006 1.94-29.832.768-59.678.69-89.506-.036-13.808-.94-27.71-2.03-41.482-2.02-25.518-11.295-48.26-28.008-68.23-7.003-8.369-14.346-15.976-22.718-22.831-10.225-8.373-22.244-12.922-34.541-16.94C794.397 19.424 778.345 17.74 762 18.5"/></svg>